<svg xmlns="http://www.w3.org/2000/svg" viewBox="0 0 1536 1024" width="1536" height="1024">
  <circle class="logo-dot" cx="225.64" cy="362.91" r="1.60" fill="#ffffff" />
  <circle class="logo-dot" cx="225.50" cy="391.50" r="1.60" fill="#ffffff" />
  <circle class="logo-dot" cx="235.36" cy="391.73" r="1.60" fill="#ffffff" />
  <circle class="logo-dot" cx="264.91" cy="391.64" r="1.60" fill="#ffffff" />
  <circle class="logo-dot" cx="176.50" cy="410.50" r="1.60" fill="#ffffff" />
  <circle class="logo-dot" cx="176.64" cy="439.55" r="1.60" fill="#ffffff" />
  <circle class="logo-dot" cx="759.71" cy="447.64" r="1.60" fill="#ffffff" />
  <circle class="logo-dot" cx="1135.00" cy="447.50" r="1.60" fill="#ffffff" />
  <circle class="logo-dot" cx="1323.93" cy="447.36" r="1.60" fill="#ffffff" />
  <circle class="logo-dot" cx="134.38" cy="458.62" r="1.60" fill="#ffffff" />
  <circle class="logo-dot" cx="176.50" cy="458.50" r="1.60" fill="#ffffff" />
  <circle class="logo-dot" cx="225.50" cy="458.50" r="1.60" fill="#ffffff" />
  <circle class="logo-dot" cx="319.64" cy="458.45" r="1.60" fill="#ffffff" />
  <circle class="logo-dot" cx="338.50" cy="458.50" r="1.60" fill="#ffffff" />
  <circle class="logo-dot" cx="357.50" cy="458.50" r="1.60" fill="#ffffff" />
  <circle class="logo-dot" cx="387.29" cy="458.50" r="1.60" fill="#ffffff" />
  <circle class="logo-dot" cx="512.50" cy="458.50" r="1.60" fill="#ffffff" />
  <circle class="logo-dot" cx="531.50" cy="458.50" r="1.60" fill="#ffffff" />
  <circle class="logo-dot" cx="561.85" cy="458.46" r="1.60" fill="#ffffff" />
  <circle class="logo-dot" cx="639.50" cy="458.50" r="1.60" fill="#ffffff" />
  <circle class="logo-dot" cx="679.00" cy="458.50" r="1.60" fill="#ffffff" />
  <circle class="logo-dot" cx="698.75" cy="458.58" r="1.60" fill="#ffffff" />
  <circle class="logo-dot" cx="730.09" cy="458.36" r="1.60" fill="#ffffff" />
  <circle class="logo-dot" cx="759.50" cy="458.50" r="1.60" fill="#ffffff" />
  <circle class="logo-dot" cx="855.50" cy="458.50" r="1.60" fill="#ffffff" />
  <circle class="logo-dot" cx="885.29" cy="458.50" r="1.60" fill="#ffffff" />
  <circle class="logo-dot" cx="1003.50" cy="458.50" r="1.60" fill="#ffffff" />
  <circle class="logo-dot" cx="1023.00" cy="458.50" r="1.60" fill="#ffffff" />
  <circle class="logo-dot" cx="1083.17" cy="458.33" r="1.60" fill="#ffffff" />
  <circle class="logo-dot" cx="1093.50" cy="458.50" r="1.60" fill="#ffffff" />
  <circle class="logo-dot" cx="1114.09" cy="458.36" r="1.60" fill="#ffffff" />
  <circle class="logo-dot" cx="1239.62" cy="458.38" r="1.60" fill="#ffffff" />
  <circle class="logo-dot" cx="1249.45" cy="458.55" r="1.60" fill="#ffffff" />
  <circle class="logo-dot" cx="1270.09" cy="458.36" r="1.60" fill="#ffffff" />
  <circle class="logo-dot" cx="1304.09" cy="458.36" r="1.60" fill="#ffffff" />
  <circle class="logo-dot" cx="1323.62" cy="458.38" r="1.60" fill="#ffffff" />
  <circle class="logo-dot" cx="1334.00" cy="458.55" r="1.60" fill="#ffffff" />
  <circle class="logo-dot" cx="186.91" cy="477.64" r="1.60" fill="#ffffff" />
  <circle class="logo-dot" cx="196.09" cy="477.64" r="1.60" fill="#ffffff" />
  <circle class="logo-dot" cx="235.38" cy="477.62" r="1.60" fill="#ffffff" />
  <circle class="logo-dot" cx="309.38" cy="477.62" r="1.60" fill="#ffffff" />
  <circle class="logo-dot" cx="357.62" cy="477.62" r="1.60" fill="#ffffff" />
  <circle class="logo-dot" cx="417.36" cy="477.55" r="1.60" fill="#ffffff" />
  <circle class="logo-dot" cx="493.50" cy="477.50" r="1.60" fill="#ffffff" />
  <circle class="logo-dot" cx="571.82" cy="477.82" r="1.60" fill="#ffffff" />
  <circle class="logo-dot" cx="602.25" cy="477.67" r="1.60" fill="#ffffff" />
  <circle class="logo-dot" cx="649.50" cy="477.50" r="1.60" fill="#ffffff" />
  <circle class="logo-dot" cx="698.62" cy="477.62" r="1.60" fill="#ffffff" />
  <circle class="logo-dot" cx="709.50" cy="477.71" r="1.60" fill="#ffffff" />
  <circle class="logo-dot" cx="759.82" cy="477.82" r="1.60" fill="#ffffff" />
  <circle class="logo-dot" cx="769.82" cy="477.82" r="1.60" fill="#ffffff" />
  <circle class="logo-dot" cx="855.50" cy="477.50" r="1.60" fill="#ffffff" />
  <circle class="logo-dot" cx="885.18" cy="477.82" r="1.60" fill="#ffffff" />
  <circle class="logo-dot" cx="896.18" cy="477.82" r="1.60" fill="#ffffff" />
  <circle class="logo-dot" cx="926.82" cy="477.82" r="1.60" fill="#ffffff" />
  <circle class="logo-dot" cx="1003.50" cy="477.50" r="1.60" fill="#ffffff" />
  <circle class="logo-dot" cx="1051.82" cy="477.82" r="1.60" fill="#ffffff" />
  <circle class="logo-dot" cx="1082.82" cy="477.82" r="1.60" fill="#ffffff" />
  <circle class="logo-dot" cx="1093.62" cy="477.62" r="1.60" fill="#ffffff" />
  <circle class="logo-dot" cx="1124.18" cy="477.82" r="1.60" fill="#ffffff" />
  <circle class="logo-dot" cx="1220.25" cy="477.67" r="1.60" fill="#ffffff" />
  <circle class="logo-dot" cx="1239.64" cy="477.55" r="1.60" fill="#ffffff" />
  <circle class="logo-dot" cx="1249.45" cy="477.45" r="1.60" fill="#ffffff" />
  <circle class="logo-dot" cx="1304.18" cy="477.82" r="1.60" fill="#ffffff" />
  <circle class="logo-dot" cx="1333.62" cy="477.62" r="1.60" fill="#ffffff" />
  <circle class="logo-dot" cx="134.13" cy="488.47" r="1.60" fill="#ffffff" />
  <circle class="logo-dot" cx="186.91" cy="487.64" r="1.60" fill="#ffffff" />
  <circle class="logo-dot" cx="225.50" cy="487.50" r="1.60" fill="#ffffff" />
  <circle class="logo-dot" cx="235.25" cy="487.67" r="1.60" fill="#ffffff" />
  <circle class="logo-dot" cx="309.50" cy="487.50" r="1.60" fill="#ffffff" />
  <circle class="logo-dot" cx="417.50" cy="487.50" r="1.60" fill="#ffffff" />
  <circle class="logo-dot" cx="512.50" cy="487.50" r="1.60" fill="#ffffff" />
  <circle class="logo-dot" cx="531.50" cy="487.50" r="1.60" fill="#ffffff" />
  <circle class="logo-dot" cx="541.25" cy="487.67" r="1.60" fill="#ffffff" />
  <circle class="logo-dot" cx="561.91" cy="487.64" r="1.60" fill="#ffffff" />
  <circle class="logo-dot" cx="602.38" cy="487.62" r="1.60" fill="#ffffff" />
  <circle class="logo-dot" cx="649.50" cy="487.50" r="1.60" fill="#ffffff" />
  <circle class="logo-dot" cx="698.80" cy="487.80" r="1.60" fill="#ffffff" />
  <circle class="logo-dot" cx="759.62" cy="487.62" r="1.60" fill="#ffffff" />
  <circle class="logo-dot" cx="769.50" cy="487.50" r="1.60" fill="#ffffff" />
  <circle class="logo-dot" cx="789.38" cy="487.62" r="1.60" fill="#ffffff" />
  <circle class="logo-dot" cx="885.00" cy="487.50" r="1.60" fill="#ffffff" />
  <circle class="logo-dot" cx="975.62" cy="487.62" r="1.60" fill="#ffffff" />
  <circle class="logo-dot" cx="1003.50" cy="487.50" r="1.60" fill="#ffffff" />
  <circle class="logo-dot" cx="1072.09" cy="487.64" r="1.60" fill="#ffffff" />
  <circle class="logo-dot" cx="1093.64" cy="487.91" r="1.60" fill="#ffffff" />
  <circle class="logo-dot" cx="1220.09" cy="487.64" r="1.60" fill="#ffffff" />
  <circle class="logo-dot" cx="1239.50" cy="487.50" r="1.60" fill="#ffffff" />
  <circle class="logo-dot" cx="1249.09" cy="487.64" r="1.60" fill="#ffffff" />
  <circle class="logo-dot" cx="1323.62" cy="487.62" r="1.60" fill="#ffffff" />
  <circle class="logo-dot" cx="1333.62" cy="487.62" r="1.60" fill="#ffffff" />
  <circle class="logo-dot" cx="1353.50" cy="487.50" r="1.60" fill="#ffffff" />
  <circle class="logo-dot" cx="176.64" cy="506.55" r="1.60" fill="#ffffff" />
  <circle class="logo-dot" cx="206.00" cy="506.50" r="1.60" fill="#ffffff" />
  <circle class="logo-dot" cx="289.91" cy="506.36" r="1.60" fill="#ffffff" />
  <circle class="logo-dot" cx="309.50" cy="506.50" r="1.60" fill="#ffffff" />
  <circle class="logo-dot" cx="417.50" cy="506.50" r="1.60" fill="#ffffff" />
  <circle class="logo-dot" cx="446.50" cy="506.50" r="1.60" fill="#ffffff" />
  <circle class="logo-dot" cx="493.50" cy="506.50" r="1.60" fill="#ffffff" />
  <circle class="logo-dot" cx="512.50" cy="506.50" r="1.60" fill="#ffffff" />
  <circle class="logo-dot" cx="531.50" cy="506.50" r="1.60" fill="#ffffff" />
  <circle class="logo-dot" cx="759.50" cy="506.50" r="1.60" fill="#ffffff" />
  <circle class="logo-dot" cx="789.50" cy="506.50" r="1.60" fill="#ffffff" />
  <circle class="logo-dot" cx="855.50" cy="506.50" r="1.60" fill="#ffffff" />
  <circle class="logo-dot" cx="956.55" cy="506.45" r="1.60" fill="#ffffff" />
  <circle class="logo-dot" cx="1003.45" cy="506.64" r="1.60" fill="#ffffff" />
  <circle class="logo-dot" cx="1144.09" cy="506.36" r="1.60" fill="#ffffff" />
  <circle class="logo-dot" cx="1239.62" cy="506.62" r="1.60" fill="#ffffff" />
  <circle class="logo-dot" cx="1303.71" cy="506.50" r="1.60" fill="#ffffff" />
  <circle class="logo-dot" cx="1323.50" cy="506.50" r="1.60" fill="#ffffff" />
  <circle class="logo-dot" cx="1333.50" cy="506.50" r="1.60" fill="#ffffff" />
  <circle class="logo-dot" cx="1353.50" cy="506.50" r="1.60" fill="#ffffff" />
  <circle class="logo-dot" cx="309.55" cy="525.36" r="1.60" fill="#ffffff" />
  <circle class="logo-dot" cx="357.36" cy="525.09" r="1.60" fill="#ffffff" />
  <circle class="logo-dot" cx="759.82" cy="525.18" r="1.60" fill="#ffffff" />
  <circle class="logo-dot" cx="936.91" cy="525.36" r="1.60" fill="#ffffff" />
  <circle class="logo-dot" cx="975.50" cy="525.50" r="1.60" fill="#ffffff" />
  <circle class="logo-dot" cx="1144.09" cy="525.36" r="1.60" fill="#ffffff" />
  <circle class="logo-dot" cx="1239.50" cy="525.50" r="1.60" fill="#ffffff" />
  <circle class="logo-dot" cx="1323.75" cy="525.33" r="1.60" fill="#ffffff" />
  <circle class="logo-dot" cx="290.36" cy="543.55" r="1.60" fill="#ffffff" />
  <circle class="logo-dot" cx="357.62" cy="543.62" r="1.60" fill="#ffffff" />
  <circle class="logo-dot" cx="417.36" cy="543.55" r="1.60" fill="#ffffff" />
  <circle class="logo-dot" cx="541.18" cy="543.82" r="1.60" fill="#ffffff" />
  <circle class="logo-dot" cx="649.82" cy="543.82" r="1.60" fill="#ffffff" />
  <circle class="logo-dot" cx="836.18" cy="543.82" r="1.60" fill="#ffffff" />
  <circle class="logo-dot" cx="956.18" cy="543.82" r="1.60" fill="#ffffff" />
  <circle class="logo-dot" cx="1051.82" cy="543.82" r="1.60" fill="#ffffff" />
  <circle class="logo-dot" cx="1220.18" cy="543.82" r="1.60" fill="#ffffff" />
  <circle class="logo-dot" cx="1333.82" cy="543.82" r="1.60" fill="#ffffff" />
  <circle class="logo-dot" cx="1353.50" cy="543.50" r="1.60" fill="#ffffff" />
  <circle class="logo-dot" cx="176.50" cy="553.50" r="1.60" fill="#ffffff" />
  <circle class="logo-dot" cx="309.50" cy="553.50" r="1.60" fill="#ffffff" />
  <circle class="logo-dot" cx="338.42" cy="553.42" r="1.60" fill="#ffffff" />
  <circle class="logo-dot" cx="357.67" cy="553.25" r="1.60" fill="#ffffff" />
  <circle class="logo-dot" cx="387.21" cy="553.36" r="1.60" fill="#ffffff" />
  <circle class="logo-dot" cx="417.38" cy="553.38" r="1.60" fill="#ffffff" />
  <circle class="logo-dot" cx="446.50" cy="553.50" r="1.60" fill="#ffffff" />
  <circle class="logo-dot" cx="465.73" cy="553.55" r="1.60" fill="#ffffff" />
  <circle class="logo-dot" cx="512.64" cy="553.45" r="1.60" fill="#ffffff" />
  <circle class="logo-dot" cx="531.50" cy="553.50" r="1.60" fill="#ffffff" />
  <circle class="logo-dot" cx="769.58" cy="553.67" r="1.60" fill="#ffffff" />
  <circle class="logo-dot" cx="855.50" cy="553.50" r="1.60" fill="#ffffff" />
  <circle class="logo-dot" cx="975.50" cy="553.50" r="1.60" fill="#ffffff" />
  <circle class="logo-dot" cx="1003.50" cy="553.50" r="1.60" fill="#ffffff" />
  <circle class="logo-dot" cx="1154.00" cy="553.50" r="1.60" fill="#ffffff" />
  <circle class="logo-dot" cx="1239.50" cy="553.50" r="1.60" fill="#ffffff" />
  <circle class="logo-dot" cx="1323.71" cy="553.50" r="1.60" fill="#ffffff" />
  <circle class="logo-dot" cx="1333.50" cy="553.50" r="1.60" fill="#ffffff" />
  <circle class="logo-dot" cx="1353.36" cy="553.55" r="1.60" fill="#ffffff" />
  <circle class="logo-dot" cx="309.62" cy="573.38" r="1.60" fill="#ffffff" />
  <circle class="logo-dot" cx="759.75" cy="573.33" r="1.60" fill="#ffffff" />
  <circle class="logo-dot" cx="789.25" cy="573.33" r="1.60" fill="#ffffff" />
  <circle class="logo-dot" cx="936.91" cy="573.36" r="1.60" fill="#ffffff" />
  <circle class="logo-dot" cx="1003.36" cy="573.45" r="1.60" fill="#ffffff" />
  <circle class="logo-dot" cx="1032.91" cy="573.36" r="1.60" fill="#ffffff" />
  <circle class="logo-dot" cx="1210.09" cy="573.36" r="1.60" fill="#ffffff" />
  <circle class="logo-dot" cx="1239.62" cy="573.38" r="1.60" fill="#ffffff" />
  <circle class="logo-dot" cx="1323.62" cy="573.38" r="1.60" fill="#ffffff" />
  <circle class="logo-dot" cx="1333.62" cy="573.38" r="1.60" fill="#ffffff" />
  <circle class="logo-dot" cx="1353.55" cy="573.55" r="1.60" fill="#ffffff" />
  <circle class="logo-dot" cx="176.75" cy="583.33" r="1.60" fill="#ffffff" />
  <circle class="logo-dot" cx="338.25" cy="583.33" r="1.60" fill="#ffffff" />
  <circle class="logo-dot" cx="946.09" cy="583.36" r="1.60" fill="#ffffff" />
  <circle class="logo-dot" cx="975.82" cy="583.18" r="1.60" fill="#ffffff" />
  <circle class="logo-dot" cx="1144.09" cy="583.36" r="1.60" fill="#ffffff" />
  <circle class="logo-dot" cx="1323.82" cy="583.18" r="1.60" fill="#ffffff" />
  <circle class="logo-dot" cx="1395.64" cy="583.29" r="1.60" fill="#ffffff" />
  <circle class="logo-dot" cx="1435.71" cy="583.14" r="1.60" fill="#ffffff" />
  <circle class="logo-dot" cx="176.50" cy="602.50" r="1.60" fill="#ffffff" />
  <circle class="logo-dot" cx="186.91" cy="602.64" r="1.60" fill="#ffffff" />
  <circle class="logo-dot" cx="206.25" cy="602.67" r="1.60" fill="#ffffff" />
  <circle class="logo-dot" cx="309.50" cy="603.00" r="1.60" fill="#ffffff" />
  <circle class="logo-dot" cx="338.25" cy="602.67" r="1.60" fill="#ffffff" />
  <circle class="logo-dot" cx="357.62" cy="602.62" r="1.60" fill="#ffffff" />
  <circle class="logo-dot" cx="386.88" cy="602.69" r="1.60" fill="#ffffff" />
  <circle class="logo-dot" cx="417.62" cy="602.62" r="1.60" fill="#ffffff" />
  <circle class="logo-dot" cx="447.50" cy="603.00" r="1.60" fill="#ffffff" />
  <circle class="logo-dot" cx="512.55" cy="602.64" r="1.60" fill="#ffffff" />
  <circle class="logo-dot" cx="531.64" cy="602.91" r="1.60" fill="#ffffff" />
  <circle class="logo-dot" cx="639.62" cy="602.62" r="1.60" fill="#ffffff" />
  <circle class="logo-dot" cx="678.91" cy="602.64" r="1.60" fill="#ffffff" />
  <circle class="logo-dot" cx="759.62" cy="602.62" r="1.60" fill="#ffffff" />
  <circle class="logo-dot" cx="789.18" cy="603.18" r="1.60" fill="#ffffff" />
  <circle class="logo-dot" cx="855.50" cy="602.50" r="1.60" fill="#ffffff" />
  <circle class="logo-dot" cx="926.91" cy="602.64" r="1.60" fill="#ffffff" />
  <circle class="logo-dot" cx="936.91" cy="602.64" r="1.60" fill="#ffffff" />
  <circle class="logo-dot" cx="975.73" cy="602.64" r="1.60" fill="#ffffff" />
  <circle class="logo-dot" cx="1003.38" cy="602.62" r="1.60" fill="#ffffff" />
  <circle class="logo-dot" cx="1032.92" cy="602.83" r="1.60" fill="#ffffff" />
  <circle class="logo-dot" cx="1042.17" cy="602.83" r="1.60" fill="#ffffff" />
  <circle class="logo-dot" cx="1144.09" cy="602.64" r="1.60" fill="#ffffff" />
  <circle class="logo-dot" cx="1210.09" cy="602.64" r="1.60" fill="#ffffff" />
  <circle class="logo-dot" cx="1239.62" cy="602.62" r="1.60" fill="#ffffff" />
  <circle class="logo-dot" cx="1304.09" cy="602.45" r="1.60" fill="#ffffff" />
  <circle class="logo-dot" cx="1323.67" cy="602.75" r="1.60" fill="#ffffff" />
  <circle class="logo-dot" cx="1353.27" cy="602.64" r="1.60" fill="#ffffff" />
  <circle class="logo-dot" cx="1396.00" cy="603.00" r="1.60" fill="#ffffff" />
  <circle class="logo-dot" cx="1406.00" cy="603.00" r="1.60" fill="#ffffff" />
  <circle class="logo-dot" cx="1425.71" cy="602.50" r="1.60" fill="#ffffff" />
  <circle class="logo-dot" cx="1435.62" cy="602.62" r="1.60" fill="#ffffff" />
  <circle class="logo-dot" cx="176.71" cy="613.50" r="1.60" fill="#ffffff" />
  <circle class="logo-dot" cx="206.25" cy="613.67" r="1.60" fill="#ffffff" />
  <circle class="logo-dot" cx="338.38" cy="613.38" r="1.60" fill="#ffffff" />
  <circle class="logo-dot" cx="357.50" cy="613.50" r="1.60" fill="#ffffff" />
  <circle class="logo-dot" cx="386.87" cy="613.47" r="1.60" fill="#ffffff" />
  <circle class="logo-dot" cx="417.62" cy="613.38" r="1.60" fill="#ffffff" />
  <circle class="logo-dot" cx="446.09" cy="614.09" r="1.60" fill="#ffffff" />
  <circle class="logo-dot" cx="512.50" cy="613.50" r="1.60" fill="#ffffff" />
  <circle class="logo-dot" cx="541.00" cy="613.55" r="1.60" fill="#ffffff" />
  <circle class="logo-dot" cx="639.62" cy="613.38" r="1.60" fill="#ffffff" />
  <circle class="logo-dot" cx="669.15" cy="613.54" r="1.60" fill="#ffffff" />
  <circle class="logo-dot" cx="678.91" cy="613.64" r="1.60" fill="#ffffff" />
  <circle class="logo-dot" cx="759.85" cy="613.46" r="1.60" fill="#ffffff" />
  <circle class="logo-dot" cx="789.27" cy="613.64" r="1.60" fill="#ffffff" />
  <circle class="logo-dot" cx="817.00" cy="613.50" r="1.60" fill="#ffffff" />
  <circle class="logo-dot" cx="855.50" cy="613.50" r="1.60" fill="#ffffff" />
  <circle class="logo-dot" cx="865.00" cy="613.50" r="1.60" fill="#ffffff" />
  <circle class="logo-dot" cx="926.73" cy="613.55" r="1.60" fill="#ffffff" />
  <circle class="logo-dot" cx="1003.38" cy="613.62" r="1.60" fill="#ffffff" />
  <circle class="logo-dot" cx="1022.91" cy="613.64" r="1.60" fill="#ffffff" />
  <circle class="logo-dot" cx="1032.91" cy="613.64" r="1.60" fill="#ffffff" />
  <circle class="logo-dot" cx="1051.67" cy="613.50" r="1.60" fill="#ffffff" />
  <circle class="logo-dot" cx="1144.09" cy="613.36" r="1.60" fill="#ffffff" />
  <circle class="logo-dot" cx="1210.09" cy="613.36" r="1.60" fill="#ffffff" />
  <circle class="logo-dot" cx="1239.50" cy="613.50" r="1.60" fill="#ffffff" />
  <circle class="logo-dot" cx="1323.62" cy="613.62" r="1.60" fill="#ffffff" />
  <circle class="logo-dot" cx="1333.71" cy="613.50" r="1.60" fill="#ffffff" />
  <circle class="logo-dot" cx="1353.55" cy="613.55" r="1.60" fill="#ffffff" />
  <circle class="logo-dot" cx="1405.87" cy="613.53" r="1.60" fill="#ffffff" />
  <circle class="logo-dot" cx="1425.85" cy="613.46" r="1.60" fill="#ffffff" />
  <circle class="logo-dot" cx="1395.92" cy="626.08" r="1.60" fill="#ffffff" />
  <circle class="logo-dot" cx="1436.00" cy="625.69" r="1.60" fill="#ffffff" />
  <circle class="logo-dot" cx="176.50" cy="633.50" r="1.60" fill="#ffffff" />
  <circle class="logo-dot" cx="206.50" cy="633.50" r="1.60" fill="#ffffff" />
  <circle class="logo-dot" cx="512.50" cy="633.50" r="1.60" fill="#ffffff" />
  <circle class="logo-dot" cx="531.50" cy="633.50" r="1.60" fill="#ffffff" />
  <circle class="logo-dot" cx="639.71" cy="633.50" r="1.60" fill="#ffffff" />
  <circle class="logo-dot" cx="669.38" cy="633.62" r="1.60" fill="#ffffff" />
  <circle class="logo-dot" cx="679.00" cy="633.50" r="1.60" fill="#ffffff" />
  <circle class="logo-dot" cx="759.62" cy="633.38" r="1.60" fill="#ffffff" />
  <circle class="logo-dot" cx="789.29" cy="633.50" r="1.60" fill="#ffffff" />
  <circle class="logo-dot" cx="817.00" cy="633.50" r="1.60" fill="#ffffff" />
  <circle class="logo-dot" cx="826.09" cy="633.36" r="1.60" fill="#ffffff" />
  <circle class="logo-dot" cx="855.50" cy="633.50" r="1.60" fill="#ffffff" />
  <circle class="logo-dot" cx="865.00" cy="633.50" r="1.60" fill="#ffffff" />
  <circle class="logo-dot" cx="927.00" cy="633.50" r="1.60" fill="#ffffff" />
  <circle class="logo-dot" cx="975.71" cy="633.50" r="1.60" fill="#ffffff" />
  <circle class="logo-dot" cx="1003.50" cy="633.50" r="1.60" fill="#ffffff" />
  <circle class="logo-dot" cx="1033.00" cy="633.50" r="1.60" fill="#ffffff" />
  <circle class="logo-dot" cx="1144.00" cy="633.50" r="1.60" fill="#ffffff" />
  <circle class="logo-dot" cx="1239.50" cy="633.50" r="1.60" fill="#ffffff" />
  <circle class="logo-dot" cx="1323.55" cy="633.64" r="1.60" fill="#ffffff" />
  <circle class="logo-dot" cx="1333.71" cy="633.50" r="1.60" fill="#ffffff" />
  <circle class="logo-dot" cx="104.00" cy="933.09" r="1.60" fill="#ffffff" />
  <circle class="logo-dot" cx="116.44" cy="932.56" r="1.60" fill="#ffffff" />
  <circle class="logo-dot" cx="122.18" cy="932.36" r="1.60" fill="#ffffff" />
  <circle class="logo-dot" cx="134.27" cy="932.73" r="1.60" fill="#ffffff" />
  <circle class="logo-dot" cx="1203.08" cy="933.33" r="1.60" fill="#ffffff" />
  <circle class="logo-dot" cx="1232.17" cy="932.58" r="1.60" fill="#ffffff" />
  <circle class="logo-dot" cx="1262.46" cy="932.31" r="1.60" fill="#ffffff" />
  <circle class="logo-dot" cx="1292.36" cy="932.00" r="1.60" fill="#ffffff" />
  <circle class="logo-dot" cx="1328.31" cy="932.23" r="1.60" fill="#ffffff" />
  <circle class="logo-dot" cx="1341.64" cy="931.64" r="1.60" fill="#ffffff" />
  <circle class="logo-dot" cx="1382.67" cy="932.67" r="1.60" fill="#ffffff" />
  <circle class="logo-dot" cx="1399.18" cy="931.73" r="1.60" fill="#ffffff" />
  <circle class="logo-dot" cx="1447.73" cy="932.00" r="1.60" fill="#ffffff" />
</svg>